<svg xmlns="http://www.w3.org/2000/svg" width="722" height="458" fill="none">
  <g filter="url(#a)">
    <rect width="722" height="458" fill="url(#b)" rx="25" transform="matrix(1 0 0 -1 0 458)"/>
  </g>
  <path fill="#D6D6D6" d="M0 0H722V107.344H0z" transform="matrix(1 0 0 -1 0 425)"/>
  <rect width="157.438" height="103.766" fill="url(#c)" rx="51.8828" transform="matrix(1 0 0 -1 24 232)"/>
  <text xml:space="preserve" fill="#FEFBFF" font-family="Sora" font-size="36" letter-spacing=".03em" style="white-space:pre" transform="matrix(1 0 0 -1 24 104)"><tspan x="0" y="37.24">5032 9334 3764 9846</tspan></text>
  <text xml:space="preserve" fill="#F7F2FA" font-family="Sora" font-size="36" font-weight="600" letter-spacing="0em" style="white-space:pre" transform="matrix(1 0 0 -1 64 300)"><tspan x="0" y="37.24">gold</tspan></text>
  <text xml:space="preserve" fill="#FEFBFF" font-family="Sora" font-size="18" letter-spacing="0em" style="white-space:pre" transform="matrix(1 0 0 -1 66 45)"><tspan x="0" y="18.62">02/17</tspan></text>
  <text xml:space="preserve" fill="#FEFBFF" font-family="Sora" font-size="18" letter-spacing="0em" style="white-space:pre" transform="matrix(1 0 0 -1 168 45)"><tspan x="0" y="18.62">02/20</tspan></text>
  <text xml:space="preserve" fill="#FEFBFF" font-family="Sora" font-size="18" letter-spacing="0em" style="white-space:pre" transform="matrix(1 0 0 -1 283 45)"><tspan x="0" y="18.62">123</tspan></text>
  <text xml:space="preserve" fill="#FBF9FC" font-family="Sora" font-size="13" font-weight="600" letter-spacing="0em" style="white-space:pre" transform="matrix(1 0 0 -1 624 37)"><tspan x="0" y="13.42">cirrus.</tspan></text>
  <circle r="31" fill="#0167B2" transform="matrix(1 0 0 -1 626 69)"/>
  <circle r="31" fill="#02A1E2" transform="matrix(1 0 0 -1 664 69)"/>
  <path fill="#207CBD" fill-rule="evenodd" d="M644.872 44.5993C652.228 50.2609 656.968 59.1542 656.968 69.1546C656.968 79.155 652.228 88.0483 644.872 93.71C637.515 88.0483 632.775 79.155 632.775 69.1546C632.775 59.1542 637.515 50.2609 644.872 44.5993Z" clip-rule="evenodd"/>
  <text xml:space="preserve" fill="#FEFBFF" font-family="Source Sans Pro" font-size="6" letter-spacing=".1em" style="white-space:pre" transform="matrix(1 0 0 -1 26 42)"><tspan x="0" y="6.133">MEMBER
</tspan><tspan x="0" y="14.133">SINCE</tspan></text>
  <text xml:space="preserve" fill="#FEFBFF" font-family="Source Sans Pro" font-size="6" letter-spacing=".1em" style="white-space:pre" transform="matrix(1 0 0 -1 138 42)"><tspan x="0" y="6.133">VALID
</tspan><tspan x="0" y="14.133">THRU</tspan></text>
  <text xml:space="preserve" fill="#FEFBFF" font-family="Source Sans Pro" font-size="6" letter-spacing=".1em" style="white-space:pre" transform="matrix(1 0 0 -1 240 42)"><tspan x="0" y="6.133">SECURITY
</tspan><tspan x="0" y="14.133">CODE</tspan></text>
  <path stroke="#FEFBFF" stroke-linecap="round" stroke-linejoin="round" d="M322 270C322 269.47 321.789 268.961 321.414 268.586 321.039 268.211 320.53 268 320 268H308L304 264V280C304 280.53 304.211 281.039 304.586 281.414 304.961 281.789 305.47 282 306 282H320C320.53 282 321.039 281.789 321.414 281.414 321.789 281.039 322 280.53 322 280V270ZM313 222C318.523 222 323 226.477 323 232 323 237.523 318.523 242 313 242 307.477 242 303 237.523 303 232 303 226.477 307.477 222 313 222Z"/>
  <path stroke="#FEFBFF" stroke-linecap="round" stroke-linejoin="round" d="M310.09 235C310.325 235.668 310.789 236.232 311.4 236.591 312.011 236.95 312.729 237.081 313.427 236.961 314.125 236.841 314.759 236.478 315.215 235.936 315.671 235.394 315.921 234.708 315.92 234 315.92 232 312.92 231 312.92 231M313 227H313.01"/>
  <text xml:space="preserve" fill="#FEFBFF" font-family="Source Sans Pro" font-size="9" letter-spacing="0em" style="white-space:pre" transform="matrix(1 0 0 -1 335 288)"><tspan x="0" y="10.1995">Está com dúvidas?
</tspan><tspan x="0" y="24.1995">Nosso app pode te ajudar.</tspan></text>
  <text xml:space="preserve" fill="#FEFBFF" font-family="Source Sans Pro" font-size="9" letter-spacing="0em" style="white-space:pre" transform="matrix(1 0 0 -1 335 246)"><tspan x="0" y="10.1995">Fale com a gente:
</tspan><tspan x="0" y="24.1995">0800 591 2117</tspan></text>
  <circle r="31.5" fill="#D9D9D9" transform="matrix(1 0 0 -1 125.5 179.5)"/>
  <path fill="url(#d)" fill-rule="evenodd" d="M75.8828 232C47.2287 232 24 208.771 24 180.117C24 151.463 47.2287 128.234 75.8828 128.234H91.19C123.446 168.059 126.039 190.773 91 232H75.8828Z" clip-rule="evenodd"/>
  <defs>
    <linearGradient id="b" x1="610.09" x2="354.096" y1="61.83" y2="526.995" gradientUnits="userSpaceOnUse">
      <stop stop-color="#A950C4"/>
      <stop offset="1" stop-color="#82269E"/>
    </linearGradient>
    <linearGradient id="c" x1="83" x2="126.5" y1="104" y2="6" gradientUnits="userSpaceOnUse">
      <stop stop-color="#F6F3F7"/>
      <stop offset="1" stop-color="#D6D6D6"/>
    </linearGradient>
    <linearGradient id="d" x1="95.5" x2="47" y1="227" y2="140.5" gradientUnits="userSpaceOnUse">
      <stop stop-color="#F5F5F5"/>
      <stop offset="1" stop-color="#D6D6D6"/>
    </linearGradient>
    <filter id="a" width="725" height="461" x="0" y="0" color-interpolation-filters="sRGB" filterUnits="userSpaceOnUse">
      <feFlood flood-opacity="0" result="BackgroundImageFix"/>
      <feBlend in="SourceGraphic" in2="BackgroundImageFix" result="shape"/>
      <feColorMatrix in="SourceAlpha" result="hardAlpha" values="0 0 0 0 0 0 0 0 0 0 0 0 0 0 0 0 0 0 127 0"/>
      <feOffset dx="3" dy="3"/>
      <feGaussianBlur stdDeviation="3"/>
      <feComposite in2="hardAlpha" k2="-1" k3="1" operator="arithmetic"/>
      <feColorMatrix values="0 0 0 0 1 0 0 0 0 1 0 0 0 0 1 0 0 0 0.25 0"/>
      <feBlend in2="shape" result="effect1_innerShadow_1137:0"/>
    </filter>
  </defs>
</svg>
